<svg width="16" height="16" viewBox="0 0 16 16" fill="none" xmlns="http://www.w3.org/2000/svg">
<path d="M2.64622 9.64625L7.64622 4.64625C7.69265 4.59976 7.7478 4.56288 7.8085 4.53772C7.8692 4.51255 7.93426 4.4996 7.99997 4.4996C8.06567 4.4996 8.13074 4.51255 8.19144 4.53772C8.25214 4.56288 8.30728 4.59976 8.35372 4.64625L13.3537 9.64625C13.4475 9.74007 13.5002 9.86731 13.5002 10C13.5002 10.1327 13.4475 10.2599 13.3537 10.3537C13.2599 10.4476 13.1326 10.5003 13 10.5003C12.8673 10.5003 12.74 10.4476 12.6462 10.3537L7.99997 5.70687L3.35372 10.3537C3.30726 10.4002 3.25211 10.4371 3.19141 10.4622C3.13072 10.4873 3.06566 10.5003 2.99997 10.5003C2.93427 10.5003 2.86921 10.4873 2.80852 10.4622C2.74782 10.4371 2.69267 10.4002 2.64622 10.3537C2.59976 10.3073 2.56291 10.2521 2.53777 10.1914C2.51263 10.1307 2.49969 10.0657 2.49969 10C2.49969 9.9343 2.51263 9.86924 2.53777 9.80855C2.56291 9.74785 2.59976 9.6927 2.64622 9.64625Z" fill="#F4F4F4"/>
</svg>
