<svg width="18" height="18" viewBox="0 0 18 18" fill="none" xmlns="http://www.w3.org/2000/svg">
<rect width="18" height="18" rx="2" fill="#F4F4F4"/>
<path d="M15.5306 6.03081L7.5306 14.0308C7.46092 14.1007 7.37813 14.1562 7.28696 14.1941C7.1958 14.2319 7.09806 14.2514 6.99935 14.2514C6.90064 14.2514 6.8029 14.2319 6.71173 14.1941C6.62057 14.1562 6.53778 14.1007 6.4681 14.0308L2.9681 10.5308C2.89833 10.461 2.84299 10.3782 2.80524 10.2871C2.76748 10.1959 2.74805 10.0982 2.74805 9.99956C2.74805 9.9009 2.76748 9.8032 2.80524 9.71205C2.84299 9.6209 2.89833 9.53808 2.9681 9.46831C3.03786 9.39855 3.12069 9.34321 3.21184 9.30545C3.30299 9.26769 3.40069 9.24826 3.49935 9.24826C3.59801 9.24826 3.69571 9.26769 3.78686 9.30545C3.87801 9.34321 3.96083 9.39855 4.0306 9.46831L6.99997 12.4377L14.4693 4.96956C14.6102 4.82867 14.8013 4.74951 15.0006 4.74951C15.1999 4.74951 15.391 4.82867 15.5318 4.96956C15.6727 5.11046 15.7519 5.30156 15.7519 5.50081C15.7519 5.70007 15.6727 5.89117 15.5318 6.03206L15.5306 6.03081Z" fill="#292929"/>
</svg>
