<svg width="22" height="22" viewBox="0 0 22 22" fill="none" xmlns="http://www.w3.org/2000/svg">
<path d="M21.354 10.6463C21.4005 10.6927 21.4374 10.7478 21.4626 10.8085C21.4877 10.8692 21.5007 10.9343 21.5007 11C21.5007 11.0657 21.4877 11.1308 21.4626 11.1915C21.4374 11.2522 21.4005 11.3073 21.354 11.3538L11.354 21.3538C11.3076 21.4002 11.2524 21.4371 11.1917 21.4623C11.1311 21.4874 11.066 21.5004 11.0003 21.5004C10.9346 21.5004 10.8695 21.4874 10.8088 21.4623C10.7481 21.4371 10.693 21.4002 10.6465 21.3538L0.646528 11.3538C0.600073 11.3073 0.563222 11.2521 0.538081 11.1915C0.51294 11.1308 0.5 11.0657 0.5 11C0.5 10.9343 0.51294 10.8693 0.538081 10.8086C0.563222 10.7479 0.600073 10.6927 0.646528 10.6463C0.692983 10.5998 0.748133 10.5629 0.80883 10.5378C0.869526 10.5127 0.934581 10.4997 1.00028 10.4997C1.06598 10.4997 1.13103 10.5127 1.19173 10.5378C1.25242 10.5629 1.30757 10.5998 1.35403 10.6463L11.0003 20.2925L20.6465 10.6463C20.693 10.5998 20.7481 10.5629 20.8088 10.5377C20.8695 10.5126 20.9346 10.4996 21.0003 10.4996C21.066 10.4996 21.1311 10.5126 21.1917 10.5377C21.2524 10.5629 21.3076 10.5998 21.354 10.6463ZM10.6465 11.3538C10.693 11.4002 10.7481 11.4371 10.8088 11.4623C10.8695 11.4874 10.9346 11.5004 11.0003 11.5004C11.066 11.5004 11.1311 11.4874 11.1917 11.4623C11.2524 11.4371 11.3076 11.4002 11.354 11.3538L21.354 1.35375C21.4005 1.3073 21.4373 1.25215 21.4625 1.19145C21.4876 1.13076 21.5006 1.0657 21.5006 1C21.5006 0.934306 21.4876 0.869252 21.4625 0.808555C21.4373 0.747859 21.4005 0.692708 21.354 0.646253C21.3076 0.599798 21.2524 0.562948 21.1917 0.537807C21.131 0.512665 21.066 0.499725 21.0003 0.499725C20.9346 0.499725 20.8695 0.512665 20.8088 0.537807C20.7481 0.562948 20.693 0.599798 20.6465 0.646253L11.0003 10.2925L1.35403 0.646253C1.26021 0.552433 1.13296 0.499725 1.00028 0.499725C0.867596 0.499725 0.740348 0.552433 0.646528 0.646253C0.552707 0.740073 0.5 0.867321 0.5 1C0.5 1.13269 0.552707 1.25993 0.646528 1.35375L10.6465 11.3538Z" fill="#C2C2C2"/>
</svg>
