<svg width="364" height="96" viewBox="0 0 364 96" fill="none" xmlns="http://www.w3.org/2000/svg">
<path d="M84.1403 16.488L62.4443 40.989C60.7133 42.935 59.7623 45.343 59.5873 47.794C59.3753 50.759 60.2983 53.793 62.3623 56.167L68.5103 63.261C68.3543 62.058 68.3173 60.824 68.4073 59.566C68.7503 54.763 70.9073 50.515 74.1723 47.46L93.9233 25.152C96.3113 22.447 96.0623 18.322 93.3643 15.928C90.6593 13.534 86.5353 13.783 84.1403 16.488Z" fill="url(#paint0_linear_124_319)"/>
<path d="M74.1723 47.459C70.9083 50.514 68.7513 54.762 68.4073 59.565C68.3173 60.823 68.3533 62.057 68.5103 63.26L78.0603 74.28C80.4203 77.01 84.5513 77.305 87.2753 74.938C89.9993 72.571 90.2933 68.446 87.9333 65.723L73.1243 48.635L74.1723 47.459Z" fill="url(#paint1_linear_124_319)"/>
<path d="M16.3893 12.37L40.8903 34.066C42.8363 35.797 45.2443 36.748 47.6953 36.923C50.6603 37.135 53.6943 36.212 56.0683 34.148L63.1623 28C61.9593 28.156 60.7253 28.193 59.4673 28.103C54.6643 27.76 50.4163 25.603 47.3613 22.338L25.0543 2.58704C22.3493 0.199039 18.2243 0.448037 15.8303 3.14604C13.4363 5.85104 13.6853 9.97604 16.3893 12.37Z" fill="url(#paint2_linear_124_319)"/>
<path d="M47.3613 22.338C50.4163 25.602 54.6643 27.759 59.4673 28.103C60.7253 28.193 61.9593 28.157 63.1623 28L74.1823 18.45C76.9123 16.09 77.2073 11.959 74.8403 9.23504C72.4733 6.51104 68.3483 6.21704 65.6253 8.57704L48.5383 23.385L47.3613 22.338Z" fill="url(#paint3_linear_124_319)"/>
<path opacity="0.2" d="M47.3633 22.315C50.4173 25.588 54.6673 27.755 59.4763 28.106C60.7353 28.198 61.9713 28.163 63.1763 28.009L74.1683 18.467C76.9053 16.108 77.2073 11.971 74.8413 9.24004C72.4753 6.50904 68.3453 6.20804 65.6143 8.56704L48.5403 23.365L47.3633 22.315Z" fill="url(#paint4_linear_124_319)"/>
<path opacity="0.2" d="M74.1953 47.462C70.9223 50.516 68.7553 54.766 68.4043 59.575C68.3123 60.834 68.3473 62.07 68.5013 63.275L78.0433 74.267C80.4023 77.004 84.5393 77.306 87.2703 74.94C90.0013 72.574 90.3032 68.444 87.9432 65.713L73.1443 48.636L74.1953 47.462Z" fill="url(#paint5_linear_124_319)"/>
<path d="M12.1742 81.105L33.8702 56.605C35.6012 54.659 36.5522 52.251 36.7272 49.8C36.9392 46.835 36.0162 43.801 33.9522 41.427L27.8042 34.333C27.9602 35.536 27.9972 36.77 27.9072 38.028C27.5642 42.831 25.4072 47.079 22.1422 50.134L2.39124 72.442C0.00323641 75.147 0.252239 79.272 2.95024 81.666C5.65524 84.059 9.78024 83.81 12.1742 81.105Z" fill="url(#paint6_linear_124_319)"/>
<path d="M22.1423 50.134C25.4063 47.079 27.5633 42.831 27.9073 38.028C27.9973 36.77 27.9613 35.536 27.8043 34.333L18.2543 23.313C15.8943 20.583 11.7633 20.288 9.0393 22.655C6.3153 25.022 6.0213 29.147 8.3813 31.87L23.1903 48.958L22.1423 50.134Z" fill="url(#paint7_linear_124_319)"/>
<path d="M80.2193 84.336L55.7193 62.64C53.7733 60.909 51.3653 59.958 48.9143 59.783C45.9493 59.571 42.9153 60.494 40.5413 62.558L33.4473 68.706C34.6503 68.55 35.8843 68.513 37.1423 68.603C41.9453 68.946 46.1933 71.103 49.2483 74.368L71.5563 94.119C74.2613 96.507 78.3863 96.258 80.7803 93.56C83.1733 90.855 82.9243 86.731 80.2193 84.336Z" fill="url(#paint8_linear_124_319)"/>
<path d="M49.2472 74.368C46.1922 71.104 41.9442 68.947 37.1412 68.603C35.8832 68.513 34.6492 68.549 33.4462 68.706L22.4262 78.256C19.6962 80.616 19.4012 84.747 21.7682 87.471C24.1352 90.195 28.2602 90.489 30.9832 88.129L48.0712 73.32L49.2472 74.368Z" fill="url(#paint9_linear_124_319)"/>
<path d="M118.41 67.173C117.864 66.628 117.593 65.755 117.593 64.555V16.035C117.593 14.836 117.864 13.962 118.41 13.416C118.955 12.872 119.828 12.599 121.029 12.599C122.228 12.599 123.101 12.872 123.647 13.416C124.191 13.962 124.465 14.836 124.465 16.035V64.555C124.465 65.755 124.191 66.628 123.647 67.173C123.101 67.719 122.228 67.991 121.029 67.991C119.828 67.992 118.955 67.719 118.41 67.173Z" fill="#231F20"/>
<path d="M185.504 13.417C186.104 14.019 186.404 14.863 186.404 15.954V64.556C186.404 65.648 186.103 66.493 185.504 67.092C184.903 67.694 184.058 67.992 182.968 67.992C182.313 67.992 181.712 67.828 181.167 67.501C180.621 67.174 180.075 66.656 179.531 65.946L148.357 25.772V64.555C148.357 65.647 148.056 66.492 147.457 67.091C146.856 67.693 146.011 67.991 144.921 67.991C143.829 67.991 142.983 67.692 142.384 67.091C141.783 66.491 141.485 65.647 141.485 64.555V15.954C141.485 14.863 141.784 14.018 142.384 13.417C142.984 12.817 143.829 12.518 144.921 12.518C145.575 12.518 146.16 12.681 146.68 13.009C147.198 13.336 147.756 13.855 148.358 14.563L179.532 54.738V15.954C179.532 14.863 179.831 14.018 180.431 13.417C181.031 12.817 181.876 12.518 182.968 12.518C184.058 12.517 184.903 12.817 185.504 13.417Z" fill="#231F20"/>
<path d="M240.077 64.31C240.077 65.291 239.613 66.1381 238.686 66.8461C238.032 67.4471 237.267 67.7461 236.395 67.7461C235.414 67.7461 234.567 67.283 233.859 66.354L213.812 41.562L210.294 45.2451V64.555C210.294 65.647 209.993 66.4921 209.394 67.0911C208.793 67.6931 207.948 67.991 206.858 67.991C205.766 67.991 204.92 67.6921 204.321 67.0911C203.72 66.4911 203.422 65.647 203.422 64.555V15.954C203.422 14.863 203.721 14.018 204.321 13.417C204.921 12.817 205.766 12.5181 206.858 12.5181C207.948 12.5181 208.794 12.818 209.394 13.417C209.994 14.019 210.294 14.863 210.294 15.954V35.4281L231.158 13.826C231.976 13.009 232.794 12.599 233.612 12.599C234.43 12.599 235.22 12.981 235.985 13.745C236.803 14.562 237.213 15.3811 237.213 16.1991C237.213 17.0171 236.83 17.808 236.067 18.572L218.72 36.573L239.176 62.019C239.777 62.784 240.077 63.546 240.077 64.31Z" fill="#231F20"/>
<path d="M253.945 63.533C250.971 60.56 249.486 55.937 249.486 49.664V30.764C249.486 24.492 250.985 19.868 253.986 16.895C256.985 13.923 261.595 12.464 267.814 12.518H277.632C283.903 12.518 288.527 14.004 291.5 16.977C294.473 19.951 295.96 24.574 295.96 30.846V49.664C295.96 55.937 294.473 60.56 291.5 63.533C288.526 66.507 283.903 67.992 277.632 67.992H267.814C261.541 67.992 256.918 66.506 253.945 63.533ZM277.633 61.119C280.632 61.119 282.937 60.765 284.547 60.056C286.155 59.348 287.315 58.188 288.025 56.578C288.733 54.97 289.088 52.665 289.088 49.664V30.845C289.088 27.899 288.733 25.608 288.025 23.972C287.315 22.335 286.142 21.163 284.506 20.453C282.869 19.745 280.578 19.39 277.633 19.39H267.815C264.869 19.336 262.578 19.663 260.942 20.371C259.305 21.081 258.131 22.253 257.423 23.89C256.713 25.527 256.36 27.818 256.36 30.763V49.663C256.36 52.664 256.714 54.969 257.423 56.577C258.131 58.1861 259.291 59.347 260.901 60.055C262.509 60.764 264.814 61.118 267.815 61.118H277.633V61.119Z" fill="#231F20"/>
<path d="M362.481 15.954V64.556C362.481 65.648 362.181 66.4931 361.582 67.0921C360.98 67.6941 360.136 67.992 359.045 67.992C357.953 67.992 357.108 67.6931 356.509 67.0921C355.908 66.4921 355.609 65.648 355.609 64.556V26.6721L340.554 48.8451C340.008 49.6101 339.408 50.1681 338.754 50.5231C338.099 50.8781 337.308 51.055 336.381 51.055C335.727 51.055 335.14 50.8781 334.622 50.5231C334.102 50.1691 333.57 49.6101 333.026 48.8451L317.889 26.5901V64.555C317.889 65.647 317.588 66.4921 316.989 67.0911C316.388 67.6931 315.543 67.991 314.453 67.991C313.361 67.991 312.515 67.6921 311.916 67.0911C311.315 66.4911 311.017 65.647 311.017 64.555V15.954C311.017 14.863 311.316 14.0181 311.916 13.4171C312.516 12.8171 313.361 12.5181 314.453 12.5181C315.979 12.5181 317.234 13.2541 318.217 14.7271L336.872 42.791L355.527 14.7271C356.454 13.2541 357.844 12.5181 359.7 12.5181C361.553 12.5171 362.481 13.663 362.481 15.954Z" fill="#231F20"/>
<path d="M126.245 78.3781V80.2821H120.403V91.956H118.183V78.3781H126.245Z" fill="#7A7A7A"/>
<path d="M141.25 82.484C141.25 83.902 140.786 84.988 139.857 85.744C138.928 86.499 137.606 86.877 135.891 86.877H134.479V91.957H132.259V78.379H136.169C137.865 78.379 139.137 78.726 139.982 79.419C140.828 80.112 141.25 81.133 141.25 82.484ZM134.48 85.009H135.66C136.8 85.009 137.636 84.812 138.168 84.415C138.7 84.018 138.967 83.399 138.967 82.558C138.967 81.778 138.729 81.196 138.252 80.812C137.774 80.428 137.031 80.236 136.023 80.236H134.481V85.009H134.48Z" fill="#7A7A7A"/>
<path d="M158.094 78.3781L153.813 88.0371C153.287 89.2201 152.803 90.075 152.364 90.604C151.925 91.133 151.415 91.5221 150.837 91.7701C150.258 92.0171 149.557 92.1411 148.733 92.1411C148.014 92.1411 147.349 92.0481 146.736 91.8631V89.8661C147.342 90.1071 147.977 90.2281 148.639 90.2281C149.202 90.2281 149.675 90.0901 150.056 89.8151C150.437 89.5401 150.782 89.0431 151.091 88.3241L146.085 78.3781H148.481L151.796 85.1861C152.093 85.8311 152.275 86.2601 152.344 86.4771H152.437C152.474 86.3161 152.567 86.0591 152.715 85.7061L155.771 78.3781H158.094Z" fill="#7A7A7A"/>
<path d="M174.129 91.957H171.9V80.283H165.909V91.957H163.689V78.379H174.128L174.129 91.957Z" fill="#7A7A7A"/>
<path d="M191.948 91.957H189.719V80.283H183.728V91.957H181.508V78.379H191.947L191.948 91.957Z" fill="#7A7A7A"/>
<path d="M207.751 91.957L206.396 88.186H201.205L199.877 91.957H197.536L202.616 78.323H205.031L210.111 91.957H207.751ZM205.811 86.273L204.539 82.577C204.446 82.329 204.317 81.939 204.153 81.406C203.989 80.874 203.876 80.484 203.814 80.236C203.647 80.998 203.402 81.831 203.081 82.734L201.854 86.273H205.811Z" fill="#7A7A7A"/>
<path d="M234.872 91.957H232.263L226.671 85.075V91.957H224.451V78.379H226.671V84.954L232.169 78.379H234.603L229.124 84.936L234.872 91.957Z" fill="#7A7A7A"/>
<path d="M252.524 85.149C252.524 87.359 251.971 89.078 250.866 90.303C249.761 91.53 248.196 92.142 246.172 92.142C244.122 92.142 242.548 91.534 241.449 90.317C240.349 89.101 239.801 87.372 239.801 85.13C239.801 82.888 240.354 81.167 241.458 79.966C242.563 78.765 244.141 78.164 246.19 78.164C248.209 78.164 249.768 78.774 250.871 79.994C251.972 81.214 252.524 82.932 252.524 85.149ZM242.158 85.149C242.158 86.821 242.496 88.088 243.171 88.952C243.846 89.816 244.846 90.248 246.171 90.248C247.489 90.248 248.484 89.821 249.156 88.967C249.828 88.113 250.164 86.84 250.164 85.15C250.164 83.485 249.831 82.221 249.166 81.361C248.5 80.501 247.508 80.07 246.189 80.07C244.858 80.07 243.853 80.501 243.175 81.361C242.497 82.22 242.158 83.484 242.158 85.149Z" fill="#7A7A7A"/>
<path d="M265.113 91.957L261.175 80.617H261.101C261.205 82.302 261.258 83.88 261.258 85.353V91.957H259.242V78.379H262.372L266.143 89.18H266.199L270.081 78.379H273.22V91.957H271.084V85.242C271.084 84.567 271.101 83.688 271.135 82.604C271.169 81.521 271.198 80.865 271.224 80.635H271.15L267.073 91.956H265.113V91.957Z" fill="#7A7A7A"/>
<path d="M291.04 91.957H288.811V80.283H282.82V91.957H280.6V78.379H291.039V91.957H291.04Z" fill="#7A7A7A"/>
<path d="M306.843 91.957L305.488 88.186H300.297L298.969 91.957H296.628L301.708 78.323H304.123L309.203 91.957H306.843ZM304.902 86.273L303.63 82.577C303.537 82.329 303.408 81.939 303.244 81.406C303.08 80.874 302.967 80.484 302.905 80.236C302.738 80.998 302.493 81.831 302.172 82.734L300.945 86.273H304.902Z" fill="#7A7A7A"/>
<path d="M325.508 91.957H323.279V85.837H317.019V91.957H314.799V78.379H317.019V83.933H323.279V78.379H325.508V91.957Z" fill="#7A7A7A"/>
<path d="M332.887 78.3781H334.921V85.437C334.921 86.173 334.902 86.9181 334.865 87.6701C334.828 88.4221 334.801 88.9321 334.782 89.1971H334.865L341.803 78.3781H344.395V91.956H342.351V84.9531C342.351 83.8821 342.411 82.5821 342.528 81.0531H342.454L335.488 91.956H332.887V78.3781Z" fill="#7A7A7A"/>
<path d="M351.755 78.378H353.789V85.437C353.789 86.173 353.77 86.918 353.733 87.67C353.696 88.422 353.669 88.932 353.65 89.197H353.733L360.671 78.378H363.263V91.956H361.219V84.953C361.219 83.882 361.279 82.582 361.396 81.053H361.322L354.356 91.956H351.755V78.378ZM357.578 77.292C356.265 77.292 355.305 77.056 354.694 76.582C354.085 76.108 353.746 75.317 353.677 74.209H355.656C355.693 74.654 355.778 75.002 355.911 75.249C356.045 75.497 356.236 75.675 356.487 75.783C356.738 75.891 357.12 75.945 357.633 75.945C358.24 75.945 358.701 75.81 359.017 75.542C359.333 75.272 359.525 74.828 359.593 74.209H361.609C361.516 75.273 361.141 76.054 360.485 76.55C359.829 77.044 358.861 77.292 357.578 77.292Z" fill="#7A7A7A"/>
<defs>
<linearGradient id="paint0_linear_124_319" x1="87.3514" y1="46.9392" x2="70.8691" y2="27.92" gradientUnits="userSpaceOnUse">
<stop stop-color="#C3E18C"/>
<stop offset="0.273" stop-color="#BCD360"/>
<stop offset="0.6029" stop-color="#B4C530"/>
<stop offset="0.856" stop-color="#B0BB13"/>
<stop offset="1" stop-color="#AEB808"/>
</linearGradient>
<linearGradient id="paint1_linear_124_319" x1="87.8756" y1="74.4257" x2="68.6554" y2="52.2472" gradientUnits="userSpaceOnUse">
<stop stop-color="#AEC908"/>
<stop offset="0.1959" stop-color="#92BA16"/>
<stop offset="0.561" stop-color="#62A12E"/>
<stop offset="0.8408" stop-color="#45913D"/>
<stop offset="1" stop-color="#3A8B42"/>
</linearGradient>
<linearGradient id="paint2_linear_124_319" x1="46.8405" y1="9.16127" x2="27.8214" y2="25.6435" gradientUnits="userSpaceOnUse">
<stop offset="0.0754" stop-color="#F3EB09"/>
<stop offset="1" stop-color="#FAAF40"/>
</linearGradient>
<linearGradient id="paint3_linear_124_319" x1="74.3271" y1="8.63705" x2="52.1486" y2="27.8572" gradientUnits="userSpaceOnUse">
<stop stop-color="#FFFC06"/>
<stop offset="0.1375" stop-color="#FDEA0A"/>
<stop offset="0.5292" stop-color="#F9BA15"/>
<stop offset="0.8293" stop-color="#F79D1C"/>
<stop offset="1" stop-color="#F6921E"/>
</linearGradient>
<linearGradient id="paint4_linear_124_319" x1="68.3919" y1="5.40859" x2="57.5854" y2="28.399" gradientUnits="userSpaceOnUse">
<stop stop-color="white" stop-opacity="0"/>
<stop offset="0.0964" stop-color="#F8F8F8" stop-opacity="0.0964"/>
<stop offset="0.2361" stop-color="#E5E5E5" stop-opacity="0.2361"/>
<stop offset="0.4024" stop-color="#C6C5C5" stop-opacity="0.4024"/>
<stop offset="0.5891" stop-color="#9B9999" stop-opacity="0.5891"/>
<stop offset="0.7928" stop-color="#636061" stop-opacity="0.7928"/>
<stop offset="1" stop-color="#231F20"/>
</linearGradient>
<linearGradient id="paint5_linear_124_319" x1="91.1098" y1="68.4801" x2="68.1193" y2="57.6736" gradientUnits="userSpaceOnUse">
<stop stop-color="white" stop-opacity="0"/>
<stop offset="0.0964" stop-color="#F8F8F8" stop-opacity="0.0964"/>
<stop offset="0.2361" stop-color="#E5E5E5" stop-opacity="0.2361"/>
<stop offset="0.4024" stop-color="#C6C5C5" stop-opacity="0.4024"/>
<stop offset="0.5891" stop-color="#9B9999" stop-opacity="0.5891"/>
<stop offset="0.7928" stop-color="#636061" stop-opacity="0.7928"/>
<stop offset="1" stop-color="#231F20"/>
</linearGradient>
<linearGradient id="paint6_linear_124_319" x1="8.9689" y1="50.6588" x2="25.4511" y2="69.6779" gradientUnits="userSpaceOnUse">
<stop stop-color="#94E8FF"/>
<stop offset="0.131" stop-color="#83E0FF"/>
<stop offset="0.5256" stop-color="#53CBFF"/>
<stop offset="0.828" stop-color="#36BEFF"/>
<stop offset="1" stop-color="#2BB9FF"/>
</linearGradient>
<linearGradient id="paint7_linear_124_319" x1="8.44473" y1="23.1723" x2="27.6649" y2="45.3507" gradientUnits="userSpaceOnUse">
<stop stop-color="#94E8FF"/>
<stop offset="0.3463" stop-color="#56A8D7"/>
<stop offset="0.6442" stop-color="#2878B9"/>
<stop offset="0.8711" stop-color="#0C5BA6"/>
<stop offset="1" stop-color="#01509F"/>
</linearGradient>
<linearGradient id="paint8_linear_124_319" x1="49.7729" y1="87.5482" x2="68.7921" y2="71.0659" gradientUnits="userSpaceOnUse">
<stop stop-color="#7560AA"/>
<stop offset="0.4409" stop-color="#9188D7"/>
<stop offset="0.7972" stop-color="#A3A3F4"/>
<stop offset="1" stop-color="#AAADFF"/>
</linearGradient>
<linearGradient id="paint9_linear_124_319" x1="22.2865" y1="88.0724" x2="44.4649" y2="68.8523" gradientUnits="userSpaceOnUse">
<stop stop-color="#AAADFF"/>
<stop offset="0.222" stop-color="#8993E3"/>
<stop offset="0.5752" stop-color="#596EBC"/>
<stop offset="0.846" stop-color="#3C58A4"/>
<stop offset="1" stop-color="#314F9B"/>
</linearGradient>
</defs>
</svg>
