<svg width="512" height="512" viewBox="0 0 512 512" fill="none" xmlns="http://www.w3.org/2000/svg">
<rect width="512" height="512" rx="26" fill="#F4F4F4"/>
<path fill-rule="evenodd" clip-rule="evenodd" d="M284.979 19.0067H473.403C478.592 19.0067 483.569 21.0947 487.243 24.8129C490.917 28.5311 492.987 33.5758 493 38.8406V230.022C493 235.295 490.935 240.353 487.26 244.081C483.585 247.81 478.6 249.905 473.403 249.905H284.979C279.781 249.905 274.797 247.81 271.122 244.081C267.446 240.353 265.382 235.295 265.382 230.022V38.8903C265.382 33.6169 267.446 28.5594 271.122 24.8305C274.797 21.1016 279.781 19.0067 284.979 19.0067ZM430.973 196.26C437.692 189.906 442.931 182.111 446.307 173.443C450.517 161.171 452.396 148.2 451.843 135.217C451.905 125.152 450.653 115.123 448.12 105.392C445.877 96.346 441.788 87.8786 436.117 80.5371C430.583 73.4278 423.394 67.8251 415.197 64.2325C404.588 60.064 393.252 58.1358 381.882 58.5657H312.264V212.664H381.882C391.346 212.505 400.749 211.102 409.857 208.488C417.771 206.215 425.019 202.018 430.973 196.26Z" fill="#292929"/>
<path fill-rule="evenodd" clip-rule="evenodd" d="M38.5497 19.0067H227.023C232.212 19.0067 237.189 21.0947 240.863 24.8129C244.537 28.5311 246.607 33.5758 246.62 38.8406V230.022C246.62 235.295 244.555 240.353 240.88 244.081C237.205 247.81 232.221 249.905 227.023 249.905H38.5497C33.3523 249.905 28.3677 247.81 24.6926 244.081C21.0174 240.353 18.9528 235.295 18.9528 230.022V38.8903C18.9528 33.6169 21.0174 28.5594 24.6926 24.8305C28.3677 21.1016 33.3523 19.0067 38.5497 19.0067ZM167.984 204.928C176.354 200.747 183.311 194.138 187.973 185.939C192.568 177.929 194.954 168.812 194.881 159.544C195.068 153.13 193.617 146.777 190.668 141.102C187.911 135.985 183.872 131.698 178.958 128.674C174.739 126.341 170.197 124.665 165.486 123.703C171.951 120.377 177.531 115.517 181.751 109.536C185.314 104.218 187.194 97.9228 187.14 91.4919C187.226 86.0507 186.073 80.6628 183.77 75.7481C181.467 70.8334 178.077 66.5247 173.863 63.1577C165.192 55.7014 150.739 51.9235 130.897 51.9235C113.652 51.9235 100.326 55.3534 90.9193 62.2133C81.2256 69.5031 74.443 80.0907 71.8123 92.0387L111.741 99.495C112.087 93.6157 114.286 88.0047 118.012 83.4887C119.633 81.9415 121.544 80.7396 123.631 79.9541C125.718 79.1686 127.939 78.8155 130.162 78.9155C132.236 78.7996 134.312 79.1096 136.265 79.8271C138.218 80.5446 140.008 81.6548 141.528 83.091C142.924 84.5865 144.007 86.3523 144.715 88.2826C145.422 90.2129 145.738 92.2682 145.644 94.3253C145.664 96.7235 145.18 99.0986 144.226 101.293C143.271 103.487 141.867 105.45 140.108 107.051C138.27 108.83 136.103 110.221 133.731 111.143C131.359 112.065 128.83 112.499 126.292 112.419C124.453 112.359 122.62 112.176 120.805 111.873L118.649 142.444C123.075 140.991 127.671 140.139 132.318 139.909C135.035 139.798 137.744 140.263 140.275 141.272C142.805 142.282 145.101 143.815 147.016 145.774C150.875 150.387 152.824 156.338 152.454 162.377C152.745 168.5 150.73 174.506 146.82 179.179C145.058 181.217 142.877 182.839 140.431 183.93C137.984 185.021 135.332 185.554 132.661 185.492C127.763 185.673 122.992 183.886 119.384 180.521C115.103 175.477 112.422 169.24 111.692 162.626L69.5587 168.292C71.8572 176.986 75.8928 185.108 81.4148 192.153C86.6311 198.584 93.3752 203.562 101.012 206.618C111.504 210.325 122.587 212.011 133.69 211.589C145.474 212.069 157.208 209.79 167.984 204.928Z" fill="#292929"/>
<path fill-rule="evenodd" clip-rule="evenodd" d="M370.453 94H359V177.891H370.26C377.264 178.376 384.285 177.241 390.808 174.569C395.229 172.019 398.636 167.946 400.433 163.066C403.197 154.476 404.372 145.428 403.897 136.392C403.897 120.129 401.347 109.023 396.198 102.974C391.049 96.9253 382.387 94 370.453 94Z" fill="#292929"/>
<path fill-rule="evenodd" clip-rule="evenodd" d="M38.5444 262.183H227.018C232.215 262.183 237.2 264.278 240.875 268.007C244.55 271.736 246.615 276.794 246.615 282.067V473.298C246.615 478.571 244.55 483.629 240.875 487.358C237.2 491.087 232.215 493.181 227.018 493.181H38.5444C33.3469 493.181 28.3624 491.087 24.6873 487.358C21.0121 483.629 18.9474 478.571 18.9474 473.298V282.067C18.9474 276.794 21.0121 271.736 24.6873 268.007C28.3624 264.278 33.3469 262.183 38.5444 262.183ZM66.424 429.892H143.244V458.525H179.988V429.743H199.046V396.538H179.988V302.091H143.244L66.424 394.698V429.892ZM143.244 348.27V396.687H102.678L143.244 348.27Z" fill="#292929"/>
<path fill-rule="evenodd" clip-rule="evenodd" d="M284.979 262.183H473.403C478.6 262.183 483.585 264.278 487.26 268.007C490.935 271.736 493 276.794 493 282.067V473.298C493 478.571 490.935 483.629 487.26 487.358C483.585 491.087 478.6 493.181 473.403 493.181H284.979C279.781 493.181 274.797 491.087 271.122 487.358C267.446 483.629 265.382 478.571 265.382 473.298V282.067C265.382 276.794 267.446 271.736 271.122 268.007C274.797 264.278 279.781 262.183 284.979 262.183ZM451.307 302.091H404.519L404.617 395.991C404.857 399.603 404.373 403.228 403.195 406.645C402.016 410.063 400.166 413.202 397.758 415.875C392.411 420.404 385.666 422.885 378.7 422.885C371.734 422.885 364.99 420.404 359.642 415.875C357.232 413.204 355.381 410.065 354.202 406.647C353.023 403.229 352.54 399.604 352.783 395.991V302.091H305.996V393.804C306.243 402.589 307.728 411.294 310.405 419.652C312.431 426.19 315.767 432.232 320.203 437.399C324.71 442.807 330.178 447.31 336.322 450.671C343.193 454.064 350.612 456.169 358.221 456.885C366.235 457.891 374.3 458.423 382.375 458.475C393.521 458.817 404.637 457.134 415.199 453.504C422.291 450.697 428.695 446.354 433.964 440.779C439.865 434.821 444.355 427.58 447.093 419.603C449.926 411.307 451.351 402.583 451.307 393.804V302.091Z" fill="#292929"/>
</svg>
