<svg width="154" height="24" viewBox="0 0 154 24" fill="none" xmlns="http://www.w3.org/2000/svg">
<path d="M9.42614 10H8.19318C8.12027 9.64536 7.99266 9.33381 7.81037 9.06534C7.63139 8.79688 7.41264 8.5715 7.15412 8.3892C6.89891 8.2036 6.61553 8.06439 6.30398 7.97159C5.99242 7.87879 5.66761 7.83239 5.32955 7.83239C4.71307 7.83239 4.15459 7.98816 3.65412 8.29972C3.15696 8.61127 2.76089 9.07031 2.46591 9.67685C2.17424 10.2834 2.02841 11.0275 2.02841 11.9091C2.02841 12.7907 2.17424 13.5348 2.46591 14.1413C2.76089 14.7479 3.15696 15.2069 3.65412 15.5185C4.15459 15.83 4.71307 15.9858 5.32955 15.9858C5.66761 15.9858 5.99242 15.9394 6.30398 15.8466C6.61553 15.7538 6.89891 15.6162 7.15412 15.4339C7.41264 15.2483 7.63139 15.0213 7.81037 14.7528C7.99266 14.4811 8.12027 14.1695 8.19318 13.8182H9.42614C9.33333 14.3385 9.1643 14.8042 8.91903 15.2152C8.67377 15.6262 8.36885 15.9759 8.00426 16.2642C7.63968 16.5492 7.23035 16.7663 6.77628 16.9155C6.32552 17.0646 5.84328 17.1392 5.32955 17.1392C4.46117 17.1392 3.68892 16.9271 3.01278 16.5028C2.33665 16.0786 1.80469 15.4754 1.4169 14.6932C1.02912 13.911 0.835227 12.983 0.835227 11.9091C0.835227 10.8352 1.02912 9.9072 1.4169 9.125C1.80469 8.3428 2.33665 7.73958 3.01278 7.31534C3.68892 6.8911 4.46117 6.67898 5.32955 6.67898C5.84328 6.67898 6.32552 6.75355 6.77628 6.9027C7.23035 7.05185 7.63968 7.2706 8.00426 7.55895C8.36885 7.84399 8.67377 8.192 8.91903 8.60298C9.1643 9.01065 9.33333 9.47633 9.42614 10ZM11.2594 17V9.36364H12.3929V10.517H12.4725C12.6117 10.1392 12.8636 9.83262 13.2282 9.5973C13.5927 9.36198 14.0037 9.24432 14.4611 9.24432C14.5473 9.24432 14.655 9.24597 14.7843 9.24929C14.9135 9.2526 15.0113 9.25758 15.0776 9.2642V10.4574C15.0378 10.4474 14.9467 10.4325 14.8042 10.4126C14.665 10.3894 14.5175 10.3778 14.3617 10.3778C13.9905 10.3778 13.659 10.4557 13.3674 10.6115C13.079 10.764 12.8503 10.9761 12.6813 11.2479C12.5156 11.5163 12.4327 11.8229 12.4327 12.1676V17H11.2594ZM19.4377 17.1591C18.7019 17.1591 18.0672 16.9967 17.5336 16.6719C17.0033 16.3438 16.5939 15.8864 16.3056 15.2997C16.0205 14.7098 15.878 14.0237 15.878 13.2415C15.878 12.4593 16.0205 11.7699 16.3056 11.1733C16.5939 10.5734 16.995 10.1061 17.5087 9.77131C18.0257 9.43324 18.629 9.2642 19.3184 9.2642C19.7161 9.2642 20.1088 9.33049 20.4966 9.46307C20.8844 9.59564 21.2374 9.81108 21.5556 10.1094C21.8738 10.4044 22.1273 10.7955 22.3162 11.2827C22.5051 11.7699 22.5996 12.3698 22.5996 13.0824V13.5795H16.7132V12.5653H21.4064C21.4064 12.1345 21.3203 11.75 21.1479 11.4119C20.9789 11.0739 20.7369 10.8071 20.4221 10.6115C20.1105 10.416 19.7426 10.3182 19.3184 10.3182C18.851 10.3182 18.4467 10.4342 18.1053 10.6662C17.7672 10.8949 17.507 11.1932 17.3248 11.5611C17.1425 11.929 17.0513 12.3234 17.0513 12.7443V13.4205C17.0513 13.9972 17.1507 14.486 17.3496 14.8871C17.5518 15.2848 17.8319 15.5881 18.1898 15.7969C18.5478 16.0024 18.9637 16.1051 19.4377 16.1051C19.7459 16.1051 20.0243 16.062 20.2729 15.9759C20.5248 15.8864 20.7419 15.7538 20.9242 15.5781C21.1065 15.3991 21.2473 15.1771 21.3468 14.9119L22.4803 15.2301C22.361 15.6146 22.1605 15.9527 21.8787 16.2443C21.597 16.5327 21.249 16.758 20.8347 16.9205C20.4204 17.0795 19.9547 17.1591 19.4377 17.1591ZM26.6316 17.179C26.1477 17.179 25.7085 17.0878 25.3141 16.9055C24.9197 16.7199 24.6065 16.4531 24.3745 16.1051C24.1425 15.7538 24.0265 15.3295 24.0265 14.8324C24.0265 14.3949 24.1126 14.0402 24.285 13.7685C24.4573 13.4934 24.6877 13.2779 24.976 13.1222C25.2644 12.9664 25.5826 12.8504 25.9306 12.7741C26.2819 12.6946 26.6349 12.6316 26.9895 12.5852C27.4535 12.5256 27.8297 12.4808 28.1181 12.451C28.4097 12.4179 28.6219 12.3632 28.7544 12.2869C28.8903 12.2107 28.9583 12.0781 28.9583 11.8892V11.8494C28.9583 11.3589 28.824 10.9777 28.5556 10.706C28.2904 10.4342 27.8877 10.2983 27.3475 10.2983C26.7873 10.2983 26.3482 10.4209 26.03 10.6662C25.7118 10.9115 25.4881 11.1733 25.3588 11.4517L24.2452 11.054C24.4441 10.59 24.7092 10.2287 25.0407 9.97017C25.3754 9.70833 25.74 9.52604 26.1344 9.4233C26.5321 9.31723 26.9232 9.2642 27.3077 9.2642C27.553 9.2642 27.8347 9.29403 28.1529 9.35369C28.4744 9.41004 28.7843 9.5277 29.0826 9.70668C29.3842 9.88565 29.6344 10.1558 29.8333 10.517C30.0321 10.8783 30.1316 11.3622 30.1316 11.9688V17H28.9583V15.9659H28.8986C28.8191 16.1316 28.6865 16.3089 28.5009 16.4979C28.3153 16.6868 28.0684 16.8475 27.7601 16.9801C27.4519 17.1127 27.0757 17.179 26.6316 17.179ZM26.8105 16.125C27.2746 16.125 27.6657 16.0339 27.9838 15.8516C28.3053 15.6693 28.5473 15.4339 28.7097 15.1456C28.8754 14.8572 28.9583 14.554 28.9583 14.2358V13.1619C28.9086 13.2216 28.7992 13.2763 28.6301 13.326C28.4644 13.3724 28.2722 13.4138 28.0534 13.4503C27.838 13.4834 27.6275 13.5133 27.4221 13.5398C27.2199 13.563 27.0558 13.5829 26.9299 13.5994C26.6249 13.6392 26.3399 13.7038 26.0748 13.7933C25.8129 13.8795 25.6008 14.0104 25.4384 14.1861C25.2793 14.3584 25.1998 14.5937 25.1998 14.892C25.1998 15.2997 25.3506 15.608 25.6522 15.8168C25.9571 16.0223 26.3432 16.125 26.8105 16.125ZM35.5941 9.36364V10.358H31.6367V9.36364H35.5941ZM32.7901 7.53409H33.9634V14.8125C33.9634 15.1439 34.0115 15.3925 34.1076 15.5582C34.207 15.7206 34.333 15.83 34.4854 15.8864C34.6412 15.9394 34.8053 15.9659 34.9776 15.9659C35.1069 15.9659 35.213 15.9593 35.2958 15.946C35.3787 15.9295 35.445 15.9162 35.4947 15.9062L35.7333 16.9602C35.6538 16.9901 35.5427 17.0199 35.4002 17.0497C35.2577 17.0829 35.0771 17.0994 34.8583 17.0994C34.5269 17.0994 34.2021 17.0282 33.8839 16.8857C33.569 16.7431 33.3072 16.526 33.0984 16.2344C32.8929 15.9427 32.7901 15.5748 32.7901 15.1307V7.53409ZM40.4787 17.1591C39.7429 17.1591 39.1082 16.9967 38.5746 16.6719C38.0443 16.3438 37.6349 15.8864 37.3466 15.2997C37.0616 14.7098 36.919 14.0237 36.919 13.2415C36.919 12.4593 37.0616 11.7699 37.3466 11.1733C37.6349 10.5734 38.036 10.1061 38.5497 9.77131C39.0668 9.43324 39.67 9.2642 40.3594 9.2642C40.7571 9.2642 41.1499 9.33049 41.5376 9.46307C41.9254 9.59564 42.2784 9.81108 42.5966 10.1094C42.9148 10.4044 43.1683 10.7955 43.3572 11.2827C43.5462 11.7699 43.6406 12.3698 43.6406 13.0824V13.5795H37.7543V12.5653H42.4474C42.4474 12.1345 42.3613 11.75 42.1889 11.4119C42.0199 11.0739 41.7779 10.8071 41.4631 10.6115C41.1515 10.416 40.7836 10.3182 40.3594 10.3182C39.892 10.3182 39.4877 10.4342 39.1463 10.6662C38.8082 10.8949 38.5481 11.1932 38.3658 11.5611C38.1835 11.929 38.0923 12.3234 38.0923 12.7443V13.4205C38.0923 13.9972 38.1918 14.486 38.3906 14.8871C38.5928 15.2848 38.8729 15.5881 39.2308 15.7969C39.5888 16.0024 40.0047 16.1051 40.4787 16.1051C40.7869 16.1051 41.0653 16.062 41.3139 15.9759C41.5658 15.8864 41.7829 15.7538 41.9652 15.5781C42.1475 15.3991 42.2884 15.1771 42.3878 14.9119L43.5213 15.2301C43.402 15.6146 43.2015 15.9527 42.9197 16.2443C42.638 16.5327 42.29 16.758 41.8757 16.9205C41.4614 17.0795 40.9957 17.1591 40.4787 17.1591ZM48.3089 17.1591C47.6726 17.1591 47.1108 16.9983 46.6236 16.6768C46.1364 16.352 45.7552 15.8946 45.4801 15.3047C45.205 14.7114 45.0675 14.0104 45.0675 13.2017C45.0675 12.3996 45.205 11.7036 45.4801 11.1136C45.7552 10.5237 46.138 10.0679 46.6286 9.74645C47.1191 9.42495 47.6858 9.2642 48.3288 9.2642C48.826 9.2642 49.2188 9.34706 49.5071 9.51278C49.7988 9.67519 50.0208 9.8608 50.1733 10.0696C50.3291 10.2751 50.45 10.4441 50.5362 10.5767H50.6357V6.81818H51.8089V17H50.6754V15.8267H50.5362C50.45 15.9659 50.3274 16.1416 50.1683 16.3537C50.0092 16.5625 49.7822 16.7498 49.4872 16.9155C49.1922 17.0779 48.7995 17.1591 48.3089 17.1591ZM48.468 16.1051C48.9387 16.1051 49.3364 15.9825 49.6612 15.7372C49.986 15.4886 50.233 15.1456 50.402 14.7081C50.571 14.2673 50.6555 13.7585 50.6555 13.1818C50.6555 12.6117 50.5727 12.1129 50.407 11.6854C50.2412 11.2545 49.996 10.9197 49.6712 10.6811C49.3464 10.4392 48.9453 10.3182 48.468 10.3182C47.9709 10.3182 47.5566 10.4458 47.2251 10.701C46.897 10.9529 46.6501 11.2959 46.4844 11.7301C46.322 12.161 46.2408 12.6449 46.2408 13.1818C46.2408 13.7254 46.3236 14.2192 46.4893 14.6634C46.6584 15.1042 46.907 15.4555 47.2351 15.7173C47.5665 15.9759 47.9775 16.1051 48.468 16.1051ZM58.2173 17V6.81818H59.3906V10.5767H59.4901C59.5762 10.4441 59.6955 10.2751 59.848 10.0696C60.0038 9.8608 60.2259 9.67519 60.5142 9.51278C60.8059 9.34706 61.2003 9.2642 61.6974 9.2642C62.3404 9.2642 62.9072 9.42495 63.3977 9.74645C63.8883 10.0679 64.2711 10.5237 64.5462 11.1136C64.8213 11.7036 64.9588 12.3996 64.9588 13.2017C64.9588 14.0104 64.8213 14.7114 64.5462 15.3047C64.2711 15.8946 63.8899 16.352 63.4027 16.6768C62.9155 16.9983 62.3537 17.1591 61.7173 17.1591C61.2268 17.1591 60.834 17.0779 60.5391 16.9155C60.2441 16.7498 60.017 16.5625 59.858 16.3537C59.6989 16.1416 59.5762 15.9659 59.4901 15.8267H59.3509V17H58.2173ZM59.3707 13.1818C59.3707 13.7585 59.4553 14.2673 59.6243 14.7081C59.7933 15.1456 60.0402 15.4886 60.3651 15.7372C60.6899 15.9825 61.0876 16.1051 61.5582 16.1051C62.0488 16.1051 62.4581 15.9759 62.7862 15.7173C63.1177 15.4555 63.3662 15.1042 63.532 14.6634C63.701 14.2192 63.7855 13.7254 63.7855 13.1818C63.7855 12.6449 63.7027 12.161 63.5369 11.7301C63.3745 11.2959 63.1276 10.9529 62.7962 10.701C62.468 10.4458 62.0554 10.3182 61.5582 10.3182C61.081 10.3182 60.6799 10.4392 60.3551 10.6811C60.0303 10.9197 59.785 11.2545 59.6193 11.6854C59.4536 12.1129 59.3707 12.6117 59.3707 13.1818ZM67.2358 19.8636C67.0369 19.8636 66.8596 19.8471 66.7038 19.8139C66.5481 19.7841 66.4403 19.7543 66.3807 19.7244L66.679 18.6903C66.964 18.7633 67.2159 18.7898 67.4347 18.7699C67.6534 18.75 67.8473 18.6522 68.0163 18.4766C68.1887 18.3042 68.3461 18.0241 68.4886 17.6364L68.7074 17.0398L65.8835 9.36364H67.1562L69.2642 15.4489H69.3438L71.4517 9.36364H72.7244L69.483 18.1136C69.3371 18.508 69.1565 18.8345 68.9411 19.093C68.7256 19.3549 68.4754 19.5488 68.1903 19.6747C67.9086 19.8007 67.5904 19.8636 67.2358 19.8636Z" fill="#858585"/>
<g clip-path="url(#clip0_132_977)">
<path d="M154 24.067H79V18.5518H80.1281V22.8798H152.872V18.5518H154V24.067Z" fill="#858585"/>
<path d="M95.3298 18.3701L95.3118 9.96919L91.1698 16.9217H90.1252L85.9831 10.0778V18.3701H83.75V5.69629H85.677L90.6835 14.0972L95.5999 5.69629H97.5269L97.5449 18.3701H95.3298Z" fill="#858585"/>
<path d="M109.125 15.4371H102.822L101.579 18.3703H99.166L104.839 5.69641H107.144L112.835 18.3703H110.386L109.125 15.4371ZM108.351 13.5904L105.974 8.05013L103.614 13.5904H108.351Z" fill="#858585"/>
<path d="M116.362 7.68789H112.184V5.69629H122.881V7.68789H118.703V18.3701H116.362V7.68789Z" fill="#858585"/>
<path d="M130.298 18.5516C129.025 18.5516 127.873 18.274 126.84 17.7187C125.82 17.1515 125.015 16.3728 124.427 15.3831C123.851 14.3933 123.562 13.2768 123.562 12.0336C123.562 10.7904 123.857 9.67384 124.445 8.68409C125.033 7.69431 125.838 6.92182 126.858 6.36657C127.891 5.79928 129.043 5.51562 130.316 5.51562C131.348 5.51562 132.291 5.69668 133.143 6.0588C133.996 6.42089 134.716 6.94596 135.304 7.63397L133.792 9.06431C132.879 8.07453 131.757 7.57965 130.424 7.57965C129.56 7.57965 128.785 7.77278 128.101 8.15903C127.416 8.53321 126.882 9.05826 126.498 9.73421C126.114 10.4101 125.922 11.1766 125.922 12.0336C125.922 12.8906 126.114 13.6571 126.498 14.333C126.882 15.009 127.416 15.54 128.101 15.9262C128.785 16.3005 129.56 16.4876 130.424 16.4876C131.757 16.4876 132.879 15.9867 133.792 14.9847L135.304 16.4332C134.716 17.1212 133.99 17.6463 133.125 18.0084C132.273 18.3706 131.33 18.5516 130.298 18.5516Z" fill="#858585"/>
<path d="M148.749 5.69641V18.3703H146.408V12.9386H139.888V18.3703H137.547V5.69641H139.888V10.9289H146.408V5.69641H148.749Z" fill="#858585"/>
<path d="M154 5.5152H152.872V1.18709H80.1281V5.5152H79V0H154V5.5152Z" fill="#858585"/>
</g>
<defs>
<clipPath id="clip0_132_977">
<rect width="75" height="24" fill="white" transform="translate(79)"/>
</clipPath>
</defs>
</svg>
